<svg xmlns="http://www.w3.org/2000/svg" height="591pt" version="1.1" viewBox="1 -204 591.6 591" width="591pt">
<g id="surface1">
<path d="M 571.585938 41.265625 L 466.90625 21.871094 L 140.957031 55.230469 L 120.042969 46.523438 L 78.917969 54.78125 C 48.1875 60.871094 20.394531 77.113281 0 100.894531 L 6.03125 114.480469 C 9.011719 123.796875 10.421875 133.554688 10.207031 143.332031 L 561.378906 143.332031 L 592 122.917969 L 592 82.09375 Z M 571.585938 41.265625 " style=" stroke:none;fill-rule:nonzero;fill:rgb(92.941176%,35.686275%,10.980392%);fill-opacity:1;" />
<path d="M 466.90625 21.871094 L 374.5 4.777344 C 356.648438 1.886719 338.582031 0.429688 320.496094 0.4375 L 305.320312 0.4375 C 265.054688 0.429688 225.101562 7.632812 187.378906 21.71875 L 122.15625 46.105469 L 120.042969 46.523438 L 140.957031 55.230469 Z M 466.90625 21.871094 " style=" stroke:none;fill-rule:nonzero;fill:rgb(30.588235%,67.058824%,92.54902%);fill-opacity:1;" />
<path d="M 183.722656 82.09375 L 183.722656 112.714844 L 398.070312 102.507812 L 418.484375 71.886719 Z M 183.722656 82.09375 " style=" stroke:none;fill-rule:nonzero;fill:rgb(81.960784%,31.372549%,9.411765%);fill-opacity:1;" />
<path d="M 37.59375 90.6875 L 61.242188 90.6875 L 61.242188 111.101562 L 37.59375 111.101562 Z M 37.59375 90.6875 " style=" stroke:none;fill-rule:nonzero;fill:rgb(96.078431%,68.235294%,27.058824%);fill-opacity:1;" />
<path d="M 315.003906 0.4375 L 305.316406 0.4375 C 301.652344 0.4375 298 0.558594 294.347656 0.683594 L 300.828125 38.878906 L 321.179688 36.835938 Z M 315.003906 0.4375 " style=" stroke:none;fill-rule:nonzero;fill:rgb(26.27451%,58.039216%,80%);fill-opacity:1;" />
<path d="M 140.957031 55.230469 L 132.691406 51.789062 L 132.691406 143.335938 L 153.101562 143.335938 L 153.101562 53.992188 Z M 140.957031 55.230469 " style=" stroke:none;fill-rule:nonzero;fill:rgb(83.137255%,31.764706%,9.803922%);fill-opacity:1;" />
<path d="M 356.671875 33.160156 L 325.824219 143.335938 L 347.015625 143.335938 L 378.492188 30.9375 Z M 356.671875 33.160156 " style=" stroke:none;fill-rule:nonzero;fill:rgb(83.137255%,31.764706%,9.803922%);fill-opacity:1;" />
<path d="M 498.320312 112.714844 L 588.398438 74.898438 L 579.273438 56.625 L 489.929688 94.117188 Z M 498.320312 112.714844 " style=" stroke:none;fill-rule:nonzero;fill:rgb(83.137255%,31.764706%,9.803922%);fill-opacity:1;" />
<path d="M 102.070312 82.09375 C 73.886719 82.09375 51.035156 104.945312 51.035156 133.128906 C 51.035156 161.308594 73.886719 184.164062 102.070312 184.164062 C 130.25 184.164062 153.101562 161.308594 153.101562 133.128906 C 153.101562 104.945312 130.25 82.09375 102.070312 82.09375 Z M 102.070312 82.09375 " style=" stroke:none;fill-rule:nonzero;fill:rgb(41.176471%,48.235294%,54.901961%);fill-opacity:1;" />
<path d="M 102.070312 102.507812 C 85.15625 102.507812 71.449219 116.214844 71.449219 133.128906 C 71.449219 135.179688 71.652344 137.230469 72.0625 139.25 C 75.429688 155.828125 91.585938 166.535156 108.160156 163.167969 C 120.214844 160.71875 129.628906 151.308594 132.078125 139.25 C 132.484375 137.230469 132.691406 135.179688 132.691406 133.128906 C 132.691406 116.214844 118.980469 102.507812 102.070312 102.507812 Z M 102.070312 102.507812 " style=" stroke:none;fill-rule:nonzero;fill:rgb(76.470588%,78.823529%,81.960784%);fill-opacity:1;" />
<path d="M 489.929688 82.09375 C 461.75 82.09375 438.898438 104.945312 438.898438 133.128906 C 438.898438 161.308594 461.75 184.164062 489.929688 184.164062 C 518.113281 184.164062 540.964844 161.308594 540.964844 133.128906 C 540.964844 104.945312 518.113281 82.09375 489.929688 82.09375 Z M 489.929688 82.09375 " style=" stroke:none;fill-rule:nonzero;fill:rgb(41.176471%,48.235294%,54.901961%);fill-opacity:1;" />
<path d="M 489.929688 102.507812 C 473.019531 102.507812 459.308594 116.214844 459.308594 133.128906 C 459.308594 135.179688 459.515625 137.230469 459.921875 139.25 C 463.292969 155.828125 479.449219 166.535156 496.023438 163.167969 C 508.078125 160.71875 517.488281 151.308594 519.9375 139.25 C 520.347656 137.230469 520.550781 135.179688 520.550781 133.128906 C 520.550781 116.214844 506.84375 102.507812 489.929688 102.507812 Z M 489.929688 102.507812 " style=" stroke:none;fill-rule:nonzero;fill:rgb(76.470588%,78.823529%,81.960784%);fill-opacity:1;" />
</g>
</svg>